#!OML:ASF E:\Steps\Project 1\Capture day 1\Session 2\Subject.ASF
:FULLY-SPECIFIED
:DEGREES
612
root 3.56 17.9596 7.43946 -156.634 -3.42074 177.575
lowerback -30.4546 -3.04835 -7.5157
upperback -1.24867 -2.05182 -0.310079
thorax 14.775 -1.69253 2.82718
lowerneck -5.52532 -5.95767 0.565165
upperneck 10.1041 -8.86129 4.03699
head 4.51589 -4.28379 0.742772
rclavicle 1.6201e-014 3.02153e-014
rhumerus -35.4807 -20.4132 -76.919
rradius 26.6498
rwrist 2.542
rhand -8.61818 -54.7009
rfingers 7.12502
rthumb 17.314 -83.9496
lclavicle 1.6201e-014 3.02153e-014
lhumerus -28.3105 0.49799 81.8433
lradius 17.7504
lwrist -8.66515
lhand -20.7436 -12.3113
lfingers 7.12502
lthumb 5.62194 17.5941
rfemur -21.1607 9.46238 18.6314
rtibia 10.0615
rfoot -18.3006 -0.645961
rtoes -18.434
lfemur -20.7989 -9.90937 -22.3057
ltibia 9.56704
lfoot -8.10613 -3.53569
ltoes -34.9353
613
root 3.5618 17.9607 7.44054 -156.593 -3.39672 177.592
lowerback -30.4833 -3.03404 -7.48743
upperback -1.23999 -2.03822 -0.322334
thorax 14.7956 -1.68496 2.80307
lowerneck -5.61247 -5.98342 0.63883
upperneck 10.1803 -8.91031 4.01644
head 4.55709 -4.30435 0.716007
rclavicle -3.8266e-015 1.78906e-014
rhumerus -35.5444 -20.268 -76.9646
rradius 26.7992
rwrist 2.40403
rhand -8.41214 -54.6628
rfingers 7.12502
rthumb 17.5122 -83.8941
lclavicle -3.8266e-015 1.78906e-014
lhumerus -28.176 0.857912 81.6314
lradius 17.4917
lwrist -8.96863
lhand -20.8826 -12.3118
lfingers 7.12502
lthumb 5.4877 17.5972
rfemur -21.216 9.55712 18.6173
rtibia 10.0416
rfoot -18.4132 -0.585746
rtoes -18.2477
lfemur -20.8441 -9.89486 -22.2695
ltibia 9.55
lfoot -8.09306 -3.48633
ltoes -35.0379
614
root 3.56403 17.9611 7.44007 -156.567 -3.38531 177.622
lowerback -30.5141 -3.02092 -7.46997
upperback -1.22949 -2.02386 -0.315794
thorax 14.8203 -1.67807 2.80565
lowerneck -5.65914 -6.04326 0.647431
upperneck 10.1416 -9.00218 4.10779
head 4.55956 -4.34528 0.738317
rclavicle 2.5345e-015 -2.38542e-015
rhumerus -35.5865 -20.3599 -76.8902
rradius 26.8531
rwrist 2.53601
rhand -8.52857 -55.1863
rfingers 7.12502
rthumb 17.4002 -84.4275
lclavicle 2.5345e-015 -2.38542e-015
lhumerus -28.0998 0.985479 81.5153
lradius 17.3303
lwrist -8.95237
lhand -20.9902 -12.003
lfingers 7.12502
lthumb 5.38379 17.9086
rfemur -21.2254 9.59051 18.6388
rtibia 9.99355
rfoot -18.3923 -0.60026
rtoes -18.0585
lfemur -20.8624 -9.94166 -22.2088
ltibia 9.52586
lfoot -8.07496 -3.42296
ltoes -34.8726
615
root 3.56562 17.9604 7.43834 -156.565 -3.37024 177.684
lowerback -30.5033 -2.99603 -7.43888
upperback -1.24419 -2.00828 -0.288685
thorax 14.7975 -1.66933 2.82573
lowerneck -5.65868 -6.09519 0.688574
upperneck 10.0627 -9.07051 4.12301
head 4.5307 -4.37745 0.733535
rclavicle -3.47873e-016 -1.19271e-015
rhumerus -35.6735 -20.5375 -76.7037
rradius 26.752
rwrist 2.70454
rhand -8.6105 -54.7234
rfingers 7.12502
rthumb 17.3213 -83.9715
lclavicle -3.47873e-016 -1.19271e-015
lhumerus -28.1533 0.84641 81.5184
lradius 17.2832
lwrist -8.7271
lhand -20.9305 -11.7676
lfingers 7.12502
lthumb 5.44142 18.1425
rfemur -21.1942 9.54196 18.7258
rtibia 9.9155
rfoot -18.2804 -0.57034
rtoes -18.0406
lfemur -20.7917 -9.95892 -22.1218
ltibia 9.38463
lfoot -7.99791 -3.38181
ltoes -34.3501
616
root 3.56708 17.9604 7.43833 -156.591 -3.36911 177.683
lowerback -30.4208 -2.9826 -7.44712
upperback -1.26289 -1.99514 -0.295031
thorax 14.7371 -1.66213 2.83179
lowerneck -5.58957 -6.15473 0.673903
upperneck 9.90788 -9.15455 4.26592
head 4.47201 -4.41712 0.783471
rclavicle -2.3059e-014 -2.06736e-014
rhumerus -35.836 -20.6408 -76.5649
rradius 26.6925
rwrist 2.63939
rhand -8.70568 -53.1526
rfingers 7.12502
rthumb 17.2297 -82.4088
lclavicle -2.3059e-014 -2.06736e-014
lhumerus -28.1915 0.841143 81.4457
lradius 17.2199
lwrist -8.56287
lhand -20.8162 -11.7863
lfingers 7.12502
lthumb 5.55183 18.121
rfemur -21.1532 9.54125 18.7263
rtibia 9.88019
rfoot -18.1874 -0.428615
rtoes -17.097
lfemur -20.6811 -10.0231 -22.1078
ltibia 9.21581
lfoot -7.91403 -3.33511
ltoes -33.8602
617
root 3.56792 17.9604 7.43806 -156.528 -3.41064 177.704
lowerback -30.4403 -2.99055 -7.4199
upperback -1.286 -2.02037 -0.278124
thorax 14.7216 -1.67254 2.82473
lowerneck -5.48173 -6.16989 0.536566
upperneck 9.5951 -9.16465 4.54055
head 4.36211 -4.4208 0.906353
rclavicle -8.00108e-015 -2.82274e-014
rhumerus -35.9491 -20.6034 -76.5122
rradius 26.7421
rwrist 2.52939
rhand -8.86102 -52.7682
rfingers 7.12502
rthumb 17.0802 -82.0374
lclavicle -8.00108e-015 -2.82274e-014
lhumerus -28.2046 0.871089 81.3814
lradius 17.1677
lwrist -8.49385
lhand -20.911 -11.7549
lfingers 7.12502
lthumb 5.46029 18.1548
rfemur -21.2095 9.40671 18.7623
rtibia 9.86198
rfoot -18.1304 -0.184894
rtoes -16.0836
lfemur -20.7249 -10.0618 -22.0595
ltibia 9.16156
lfoot -7.86021 -3.35353
ltoes -33.7755
618
root 3.56843 17.9609 7.43709 -156.441 -3.46108 177.737
lowerback -30.4734 -3.00371 -7.37403
upperback -1.32879 -2.06245 -0.260426
thorax 14.6905 -1.68989 2.80112
lowerneck -5.4716 -6.19481 0.492568
upperneck 9.48777 -9.20448 4.69064
head 4.33434 -4.43803 0.963253
rclavicle 2.39536e-014 1.66979e-014
rhumerus -36.0347 -20.6335 -76.4138
rradius 26.7845
rwrist 2.71288
rhand -8.64288 -53.2134
rfingers 7.12502
rthumb 17.2902 -82.4643
lclavicle 2.39536e-014 1.66979e-014
lhumerus -28.2272 0.770407 81.3358
lradius 17.0897
lwrist -8.47647
lhand -20.9588 -12.0286
lfingers 7.12502
lthumb 5.41411 17.8822
rfemur -21.302 9.1739 18.835
rtibia 9.8736
rfoot -18.1515 -0.0568568
rtoes -16.3063
lfemur -20.8075 -10.0339 -22.0029
ltibia 9.14141
lfoot -7.81887 -3.42712
ltoes -34.0176
619
root 3.56966 17.9627 7.4383 -156.427 -3.46552 177.705
lowerback -30.423 -3.00389 -7.38449
upperback -1.3439 -2.06194 -0.287358
thorax 14.6489 -1.68896 2.77935
lowerneck -5.50551 -6.19459 0.531409
upperneck 9.48746 -9.21272 4.71652
head 4.34068 -4.43957 0.963485
rclavicle -7.00716e-015 1.27222e-014
rhumerus -36.0702 -20.7628 -76.3266
rradius 26.727
rwrist 2.90214
rhand -8.52846 -53.0223
rfingers 7.12502
rthumb 17.4003 -82.2635
lclavicle -7.00716e-015 1.27222e-014
lhumerus -28.2104 0.760341 81.2341
lradius 17.038
lwrist -8.5263
lhand -20.6645 -12.0381
lfingers 7.12502
lthumb 5.69826 17.8653
rfemur -21.321 9.12278 18.8087
rtibia 9.87697
rfoot -18.1919 -0.0748718
rtoes -16.7683
lfemur -20.7988 -9.8741 -22.057
ltibia 9.08025
lfoot -7.77656 -3.5582
ltoes -34.232
620
root 3.57007 17.963 7.43702 -156.447 -3.4277 177.673
lowerback -30.4309 -2.97029 -7.37699
upperback -1.30945 -2.00823 -0.329009
thorax 14.6853 -1.66346 2.75133
lowerneck -5.51589 -6.17467 0.554683
upperneck 9.42458 -9.17682 4.69926
head 4.31657 -4.42121 0.956568
rclavicle -1.75924e-014 7.15625e-015
rhumerus -36.0225 -20.9118 -76.2707
rradius 26.588
rwrist 2.96136
rhand -8.66419 -52.514
rfingers 7.12502
rthumb 17.2697 -81.7666
lclavicle -1.75924e-014 7.15625e-015
lhumerus -28.1751 0.87128 81.1393
lradius 17.0109
lwrist -8.71506
lhand -20.6508 -11.5298
lfingers 7.12502
lthumb 5.71153 18.3732
rfemur -21.2233 8.99797 18.7881
rtibia 9.73468
rfoot -18.0878 0.102729
rtoes -16.6404
lfemur -20.7246 -9.69078 -22.1426
ltibia 8.99405
lfoot -7.71234 -3.6656
ltoes -34.1713
